<?xml version="1.0" encoding="UTF-8"?>
<svg id="Layer_2" data-name="Layer 2" xmlns="http://www.w3.org/2000/svg" viewBox="0 0 1107.99 818">
  <defs>
    <style>
      .cls-1 {
        fill: #231f20;
        stroke-width: 0px;
      }
    </style>
  </defs>
  <g id="Layer_1-2" data-name="Layer 1">
    <g>
      <path class="cls-1" d="M237,818c-49.34,0-91.67-9.84-127-29.5-35.34-19.66-62.5-47.66-81.5-84C9.5,668.17,0,624.34,0,573v-123h147v113c0,37.34,8,66.5,24,87.5s38,31.5,66,31.5,51-10.5,67-31.5,24-50.16,24-87.5V144H57V0h421v573c0,50.67-9.34,94.5-28,131.5-18.67,37-46.17,65.17-82.5,84.5-36.34,19.33-79.84,29-130.5,29Z"/>
      <path class="cls-1" d="M599.99,800l137-291-147-319h151l95,208,7,46h15l7-46,101-208h142l-152,310,142,300h-155l-85-184-7-45h-15l-7,45-84,184h-145Z"/>
    </g>
  </g>
</svg>